<svg xmlns="http://www.w3.org/2000/svg" viewBox="0 0 480 360" width="480" height="360" role="img" aria-label="Une patiente consulte un spécialiste à distance, par vidéo."><title>Une patiente consulte un spécialiste à distance, par vidéo.</title><defs><pattern id="wx2" width="18" height="18" patternUnits="userSpaceOnUse"><rect width="18" height="18" fill="#4E72AE"/><circle cx="4.5" cy="4.5" r="3.2" fill="#FFFFFF"/><circle cx="13.5" cy="13.5" r="3.2" fill="#FFFFFF"/><path d="M13.5 1.5 L16.5 4.5 L13.5 7.5 L10.5 4.5 Z M4.5 10.5 L7.5 13.5 L4.5 16.5 L1.5 13.5 Z" fill="#F2B544"/></pattern></defs><ellipse cx="240" cy="322" rx="210" ry="16" fill="#C0C6FC"/><g transform="translate(300.0 160.0)"><rect x="-90.0" y="-62.0" width="180.0" height="124.0" rx="12" fill="#242A36" stroke="#121212" stroke-width="3" stroke-linejoin="round" stroke-linecap="round"/><rect x="-80.0" y="-52.0" width="160.0" height="104.0" rx="6" fill="#4E72AE" stroke="#121212" stroke-width="3" stroke-linejoin="round" stroke-linecap="round"/><clipPath id="ecr"><rect x="-80" y="-52" width="160" height="104" rx="6"/></clipPath><g clip-path="url(#ecr)"><g transform="translate(0.0 200.0) scale(1.35)"><rect x="-19.0" y="-76.0" width="18.0" height="70.0" rx="6" fill="#DCF2EE" stroke="#121212" stroke-width="3" stroke-linejoin="round" stroke-linecap="round"/><rect x="1.0" y="-76.0" width="18.0" height="70.0" rx="6" fill="#DCF2EE" stroke="#121212" stroke-width="3" stroke-linejoin="round" stroke-linecap="round"/><rect x="-22.0" y="-10.0" width="20.0" height="10.0" rx="5" fill="#242A36" stroke="#121212" stroke-width="3" stroke-linejoin="round" stroke-linecap="round"/><rect x="2.0" y="-10.0" width="20.0" height="10.0" rx="5" fill="#242A36" stroke="#121212" stroke-width="3" stroke-linejoin="round" stroke-linecap="round"/><path d="M-22 -130 Q-24 -131 -24 -126 L-21 -72 L21 -72 L24 -126 Q24 -131 22 -130 Q0 -122 -22 -130 Z" fill="#DCF2EE" stroke="#121212" stroke-width="3" stroke-linejoin="round" stroke-linecap="round"/><rect x="-6.0" y="-140.0" width="12.0" height="12.0" rx="3" fill="#5E3A24" stroke="#121212" stroke-width="3" stroke-linejoin="round" stroke-linecap="round"/><circle cx="0.0" cy="-156.0" r="17" fill="#5E3A24" stroke="#121212" stroke-width="3" stroke-linejoin="round" stroke-linecap="round"/><path d="M-17 -158 Q-17 -176 0 -176 Q17 -176 17 -158 Q12 -168 0 -168 Q-12 -168 -17 -158 Z" fill="#1E140E" stroke="#121212" stroke-width="2.5" stroke-linejoin="round" stroke-linecap="round"/><circle cx="-6" cy="-157" r="1.8" fill="#121212"/><circle cx="6" cy="-157" r="1.8" fill="#121212"/><path d="M-5 -149 Q0 -145 5 -149" fill="none" stroke="#121212" stroke-width="2" stroke-linecap="round"/><path d="M-21.0 -124.0 L-34.0 -96.0 L-27.0 -80.0" fill="none" stroke="#121212" stroke-width="14" stroke-linecap="round" stroke-linejoin="round"/><path d="M-21.0 -124.0 L-34.0 -96.0 L-27.0 -80.0" fill="none" stroke="#5E3A24" stroke-width="8" stroke-linecap="round" stroke-linejoin="round"/><path d="M-28.0 -129.0 L-14.0 -129.0 L-21.0 -108.0 L-33.0 -108.0 Z" fill="#DCF2EE" stroke="#121212" stroke-width="2.5" stroke-linejoin="round" stroke-linecap="round"/><circle cx="-27.0" cy="-80.0" r="5.5" fill="#5E3A24" stroke="#121212" stroke-width="2.5" stroke-linejoin="round" stroke-linecap="round"/><path d="M21.0 -124.0 L34.0 -96.0 L27.0 -80.0" fill="none" stroke="#121212" stroke-width="14" stroke-linecap="round" stroke-linejoin="round"/><path d="M21.0 -124.0 L34.0 -96.0 L27.0 -80.0" fill="none" stroke="#5E3A24" stroke-width="8" stroke-linecap="round" stroke-linejoin="round"/><path d="M14.0 -129.0 L28.0 -129.0 L33.0 -108.0 L21.0 -108.0 Z" fill="#DCF2EE" stroke="#121212" stroke-width="2.5" stroke-linejoin="round" stroke-linecap="round"/><circle cx="27.0" cy="-80.0" r="5.5" fill="#5E3A24" stroke="#121212" stroke-width="2.5" stroke-linejoin="round" stroke-linecap="round"/></g><g transform="translate(0.0 200.0) scale(1.35)"><path d="M-15 -128 Q-18 -100 0 -96 Q18 -100 15 -128" fill="none" stroke="#121212" stroke-width="3" stroke-linecap="round"/><circle cx="0.0" cy="-94.0" r="5" fill="#4E72AE" stroke="#121212" stroke-width="2.5" stroke-linejoin="round" stroke-linecap="round"/></g></g><rect x="-80.0" y="-52.0" width="160.0" height="104.0" rx="6" fill="none" stroke="#121212" stroke-width="3" stroke-linejoin="round" stroke-linecap="round"/></g><g transform="translate(110.0 322.0)"><path d="M-20 -74 L20 -74 L27 -8 Q0 -2 -27 -8 Z" fill="url(#wx2)" stroke="#121212" stroke-width="3" stroke-linejoin="round" stroke-linecap="round"/><rect x="-20.0" y="-10.0" width="16.0" height="10.0" rx="5" fill="#242A36" stroke="#121212" stroke-width="3" stroke-linejoin="round" stroke-linecap="round"/><rect x="4.0" y="-10.0" width="16.0" height="10.0" rx="5" fill="#242A36" stroke="#121212" stroke-width="3" stroke-linejoin="round" stroke-linecap="round"/><path d="M-22 -130 Q-24 -131 -24 -126 L-21 -72 L21 -72 L24 -126 Q24 -131 22 -130 Q0 -122 -22 -130 Z" fill="#C0C6FC" stroke="#121212" stroke-width="3" stroke-linejoin="round" stroke-linecap="round"/><rect x="-6.0" y="-140.0" width="12.0" height="12.0" rx="3" fill="#8A5A3C" stroke="#121212" stroke-width="3" stroke-linejoin="round" stroke-linecap="round"/><circle cx="0.0" cy="-156.0" r="17" fill="#8A5A3C" stroke="#121212" stroke-width="3" stroke-linejoin="round" stroke-linecap="round"/><circle cx="0.0" cy="-178.0" r="8" fill="#1E140E" stroke="#121212" stroke-width="2.5" stroke-linejoin="round" stroke-linecap="round"/><path d="M-17 -156 Q-17 -176 0 -176 Q17 -176 17 -156 Q12 -167 0 -167 Q-12 -167 -17 -156 Z" fill="#1E140E" stroke="#121212" stroke-width="2.5" stroke-linejoin="round" stroke-linecap="round"/><circle cx="-6" cy="-157" r="1.8" fill="#121212"/><circle cx="6" cy="-157" r="1.8" fill="#121212"/><path d="M-5 -149 Q0 -145 5 -149" fill="none" stroke="#121212" stroke-width="2" stroke-linecap="round"/><path d="M-21.0 -124.0 L-34.0 -96.0 L-27.0 -80.0" fill="none" stroke="#121212" stroke-width="14" stroke-linecap="round" stroke-linejoin="round"/><path d="M-21.0 -124.0 L-34.0 -96.0 L-27.0 -80.0" fill="none" stroke="#8A5A3C" stroke-width="8" stroke-linecap="round" stroke-linejoin="round"/><path d="M-28.0 -129.0 L-14.0 -129.0 L-21.0 -108.0 L-33.0 -108.0 Z" fill="#C0C6FC" stroke="#121212" stroke-width="2.5" stroke-linejoin="round" stroke-linecap="round"/><circle cx="-27.0" cy="-80.0" r="5.5" fill="#8A5A3C" stroke="#121212" stroke-width="2.5" stroke-linejoin="round" stroke-linecap="round"/><path d="M21.0 -124.0 L35.5 -106.0 L30.0 -100.0" fill="none" stroke="#121212" stroke-width="14" stroke-linecap="round" stroke-linejoin="round"/><path d="M21.0 -124.0 L35.5 -106.0 L30.0 -100.0" fill="none" stroke="#8A5A3C" stroke-width="8" stroke-linecap="round" stroke-linejoin="round"/><path d="M14.0 -129.0 L28.0 -129.0 L33.0 -108.0 L21.0 -108.0 Z" fill="#C0C6FC" stroke="#121212" stroke-width="2.5" stroke-linejoin="round" stroke-linecap="round"/><circle cx="30.0" cy="-100.0" r="5.5" fill="#8A5A3C" stroke="#121212" stroke-width="2.5" stroke-linejoin="round" stroke-linecap="round"/></g><g transform="translate(140.0 222.0) rotate(10) scale(1.2)"><rect x="-11.0" y="-20.0" width="22.0" height="40.0" rx="5" fill="#242A36" stroke="#121212" stroke-width="3" stroke-linejoin="round" stroke-linecap="round"/><rect x="-8" y="-16" width="16" height="30" rx="2" fill="#EAF0FC"/><rect x="-8" y="-16" width="16" height="30" rx="2" fill="#4E72AE"/><circle cx="0" cy="-4" r="4.5" fill="#8A5A3C"/><path d="M-7 12 Q0 1 7 12 Z" fill="#FFFFFF"/></g><path class="lf-fil" pathLength="1" d="M160 200 C 190 150, 200 120, 210 120" fill="none" stroke="#121212" stroke-width="3" stroke-linecap="round" stroke-linejoin="round"/></svg>