<svg xmlns="http://www.w3.org/2000/svg" viewBox="0 0 480 360" width="480" height="360" role="img" aria-label="Deux médecins interprètent différemment les maux de la même patiente."><title>Deux médecins interprètent différemment les maux de la même patiente.</title><defs><pattern id="wx" width="18" height="18" patternUnits="userSpaceOnUse"><rect width="18" height="18" fill="#3648C0"/><circle cx="4.5" cy="4.5" r="3.2" fill="#F2B544"/><circle cx="13.5" cy="13.5" r="3.2" fill="#F2B544"/><path d="M13.5 1.5 L16.5 4.5 L13.5 7.5 L10.5 4.5 Z M4.5 10.5 L7.5 13.5 L4.5 16.5 L1.5 13.5 Z" fill="#C0C6FC"/></pattern></defs><ellipse cx="240" cy="320" rx="215" ry="16" fill="#C0C6FC"/><g transform="translate(80.0 320.0)"><rect x="-19.0" y="-76.0" width="18.0" height="70.0" rx="6" fill="#4E72AE" stroke="#121212" stroke-width="3" stroke-linejoin="round" stroke-linecap="round"/><rect x="1.0" y="-76.0" width="18.0" height="70.0" rx="6" fill="#4E72AE" stroke="#121212" stroke-width="3" stroke-linejoin="round" stroke-linecap="round"/><rect x="-22.0" y="-10.0" width="20.0" height="10.0" rx="5" fill="#242A36" stroke="#121212" stroke-width="3" stroke-linejoin="round" stroke-linecap="round"/><rect x="2.0" y="-10.0" width="20.0" height="10.0" rx="5" fill="#242A36" stroke="#121212" stroke-width="3" stroke-linejoin="round" stroke-linecap="round"/><path d="M-22 -130 Q-24 -131 -24 -126 L-21 -72 L21 -72 L24 -126 Q24 -131 22 -130 Q0 -122 -22 -130 Z" fill="#FFFFFF" stroke="#121212" stroke-width="3" stroke-linejoin="round" stroke-linecap="round"/><rect x="-6.0" y="-140.0" width="12.0" height="12.0" rx="3" fill="#A8704A" stroke="#121212" stroke-width="3" stroke-linejoin="round" stroke-linecap="round"/><circle cx="0.0" cy="-156.0" r="17" fill="#A8704A" stroke="#121212" stroke-width="3" stroke-linejoin="round" stroke-linecap="round"/><path d="M-17 -158 Q-17 -176 0 -176 Q17 -176 17 -158 Q12 -168 0 -168 Q-12 -168 -17 -158 Z" fill="#1E140E" stroke="#121212" stroke-width="2.5" stroke-linejoin="round" stroke-linecap="round"/><circle cx="-6" cy="-157" r="1.8" fill="#121212"/><circle cx="6" cy="-157" r="1.8" fill="#121212"/><path d="M-5 -149 Q0 -145 5 -149" fill="none" stroke="#121212" stroke-width="2" stroke-linecap="round"/><path d="M-21.0 -124.0 L-34.0 -96.0 L-27.0 -80.0" fill="none" stroke="#121212" stroke-width="14" stroke-linecap="round" stroke-linejoin="round"/><path d="M-21.0 -124.0 L-34.0 -96.0 L-27.0 -80.0" fill="none" stroke="#A8704A" stroke-width="8" stroke-linecap="round" stroke-linejoin="round"/><path d="M-28.0 -129.0 L-14.0 -129.0 L-21.0 -108.0 L-33.0 -108.0 Z" fill="#FFFFFF" stroke="#121212" stroke-width="2.5" stroke-linejoin="round" stroke-linecap="round"/><circle cx="-27.0" cy="-80.0" r="5.5" fill="#A8704A" stroke="#121212" stroke-width="2.5" stroke-linejoin="round" stroke-linecap="round"/><path d="M21.0 -124.0 L33.5 -110.0 L26.0 -108.0" fill="none" stroke="#121212" stroke-width="14" stroke-linecap="round" stroke-linejoin="round"/><path d="M21.0 -124.0 L33.5 -110.0 L26.0 -108.0" fill="none" stroke="#A8704A" stroke-width="8" stroke-linecap="round" stroke-linejoin="round"/><path d="M14.0 -129.0 L28.0 -129.0 L33.0 -108.0 L21.0 -108.0 Z" fill="#FFFFFF" stroke="#121212" stroke-width="2.5" stroke-linejoin="round" stroke-linecap="round"/><circle cx="26.0" cy="-108.0" r="5.5" fill="#A8704A" stroke="#121212" stroke-width="2.5" stroke-linejoin="round" stroke-linecap="round"/></g><g transform="translate(80.0 320.0)"><path d="M-15 -128 Q-18 -100 0 -96 Q18 -100 15 -128" fill="none" stroke="#121212" stroke-width="3" stroke-linecap="round"/><circle cx="0.0" cy="-94.0" r="5" fill="#4E72AE" stroke="#121212" stroke-width="2.5" stroke-linejoin="round" stroke-linecap="round"/></g><g transform="translate(400.0 320.0)"><rect x="-19.0" y="-76.0" width="18.0" height="70.0" rx="6" fill="#DCF2EE" stroke="#121212" stroke-width="3" stroke-linejoin="round" stroke-linecap="round"/><rect x="1.0" y="-76.0" width="18.0" height="70.0" rx="6" fill="#DCF2EE" stroke="#121212" stroke-width="3" stroke-linejoin="round" stroke-linecap="round"/><rect x="-22.0" y="-10.0" width="20.0" height="10.0" rx="5" fill="#242A36" stroke="#121212" stroke-width="3" stroke-linejoin="round" stroke-linecap="round"/><rect x="2.0" y="-10.0" width="20.0" height="10.0" rx="5" fill="#242A36" stroke="#121212" stroke-width="3" stroke-linejoin="round" stroke-linecap="round"/><path d="M-22 -130 Q-24 -131 -24 -126 L-21 -72 L21 -72 L24 -126 Q24 -131 22 -130 Q0 -122 -22 -130 Z" fill="#DCF2EE" stroke="#121212" stroke-width="3" stroke-linejoin="round" stroke-linecap="round"/><rect x="-6.0" y="-140.0" width="12.0" height="12.0" rx="3" fill="#5E3A24" stroke="#121212" stroke-width="3" stroke-linejoin="round" stroke-linecap="round"/><circle cx="0.0" cy="-156.0" r="17" fill="#5E3A24" stroke="#121212" stroke-width="3" stroke-linejoin="round" stroke-linecap="round"/><circle cx="0.0" cy="-178.0" r="8" fill="#1E140E" stroke="#121212" stroke-width="2.5" stroke-linejoin="round" stroke-linecap="round"/><path d="M-17 -156 Q-17 -176 0 -176 Q17 -176 17 -156 Q12 -167 0 -167 Q-12 -167 -17 -156 Z" fill="#1E140E" stroke="#121212" stroke-width="2.5" stroke-linejoin="round" stroke-linecap="round"/><circle cx="-6" cy="-157" r="1.8" fill="#121212"/><circle cx="6" cy="-157" r="1.8" fill="#121212"/><path d="M-5 -149 Q0 -145 5 -149" fill="none" stroke="#121212" stroke-width="2" stroke-linecap="round"/><path d="M-21.0 -124.0 L-33.5 -110.0 L-26.0 -108.0" fill="none" stroke="#121212" stroke-width="14" stroke-linecap="round" stroke-linejoin="round"/><path d="M-21.0 -124.0 L-33.5 -110.0 L-26.0 -108.0" fill="none" stroke="#5E3A24" stroke-width="8" stroke-linecap="round" stroke-linejoin="round"/><path d="M-28.0 -129.0 L-14.0 -129.0 L-21.0 -108.0 L-33.0 -108.0 Z" fill="#DCF2EE" stroke="#121212" stroke-width="2.5" stroke-linejoin="round" stroke-linecap="round"/><circle cx="-26.0" cy="-108.0" r="5.5" fill="#5E3A24" stroke="#121212" stroke-width="2.5" stroke-linejoin="round" stroke-linecap="round"/><path d="M21.0 -124.0 L34.0 -96.0 L27.0 -80.0" fill="none" stroke="#121212" stroke-width="14" stroke-linecap="round" stroke-linejoin="round"/><path d="M21.0 -124.0 L34.0 -96.0 L27.0 -80.0" fill="none" stroke="#5E3A24" stroke-width="8" stroke-linecap="round" stroke-linejoin="round"/><path d="M14.0 -129.0 L28.0 -129.0 L33.0 -108.0 L21.0 -108.0 Z" fill="#DCF2EE" stroke="#121212" stroke-width="2.5" stroke-linejoin="round" stroke-linecap="round"/><circle cx="27.0" cy="-80.0" r="5.5" fill="#5E3A24" stroke="#121212" stroke-width="2.5" stroke-linejoin="round" stroke-linecap="round"/></g><g transform="translate(400.0 320.0)"><path d="M-15 -128 Q-18 -100 0 -96 Q18 -100 15 -128" fill="none" stroke="#121212" stroke-width="3" stroke-linecap="round"/><circle cx="0.0" cy="-94.0" r="5" fill="#4E72AE" stroke="#121212" stroke-width="2.5" stroke-linejoin="round" stroke-linecap="round"/></g><g transform="translate(240.0 320.0)"><path d="M-20 -74 L20 -74 L27 -8 Q0 -2 -27 -8 Z" fill="url(#wx)" stroke="#121212" stroke-width="3" stroke-linejoin="round" stroke-linecap="round"/><rect x="-20.0" y="-10.0" width="16.0" height="10.0" rx="5" fill="#242A36" stroke="#121212" stroke-width="3" stroke-linejoin="round" stroke-linecap="round"/><rect x="4.0" y="-10.0" width="16.0" height="10.0" rx="5" fill="#242A36" stroke="#121212" stroke-width="3" stroke-linejoin="round" stroke-linecap="round"/><path d="M-22 -130 Q-24 -131 -24 -126 L-21 -72 L21 -72 L24 -126 Q24 -131 22 -130 Q0 -122 -22 -130 Z" fill="#F2B544" stroke="#121212" stroke-width="3" stroke-linejoin="round" stroke-linecap="round"/><rect x="-6.0" y="-140.0" width="12.0" height="12.0" rx="3" fill="#8A5A3C" stroke="#121212" stroke-width="3" stroke-linejoin="round" stroke-linecap="round"/><path d="M-21 -150 Q-24 -178 0 -180 Q24 -178 21 -150 L24 -134 L-24 -134 Z" fill="#3648C0" stroke="#121212" stroke-width="3" stroke-linejoin="round" stroke-linecap="round"/><circle cx="0.0" cy="-156.0" r="17" fill="#8A5A3C" stroke="#121212" stroke-width="3" stroke-linejoin="round" stroke-linecap="round"/><path d="M-18 -160 Q-16 -178 0 -178 Q16 -178 18 -160 Q10 -170 0 -170 Q-10 -170 -18 -160 Z" fill="#3648C0" stroke="#121212" stroke-width="3" stroke-linejoin="round" stroke-linecap="round"/><path d="M14 -176 Q24 -186 28 -176 Q24 -170 16 -172 Z" fill="#3648C0" stroke="#121212" stroke-width="2.5" stroke-linejoin="round" stroke-linecap="round"/><circle cx="-6" cy="-157" r="1.8" fill="#121212"/><circle cx="6" cy="-157" r="1.8" fill="#121212"/><path d="M-5 -149 Q0 -145 5 -149" fill="none" stroke="#121212" stroke-width="2" stroke-linecap="round"/><path d="M-21.0 -124.0 L-17.5 -102.0 L6.0 -92.0" fill="none" stroke="#121212" stroke-width="14" stroke-linecap="round" stroke-linejoin="round"/><path d="M-21.0 -124.0 L-17.5 -102.0 L6.0 -92.0" fill="none" stroke="#8A5A3C" stroke-width="8" stroke-linecap="round" stroke-linejoin="round"/><path d="M-28.0 -129.0 L-14.0 -129.0 L-21.0 -108.0 L-33.0 -108.0 Z" fill="#F2B544" stroke="#121212" stroke-width="2.5" stroke-linejoin="round" stroke-linecap="round"/><circle cx="6.0" cy="-92.0" r="5.5" fill="#8A5A3C" stroke="#121212" stroke-width="2.5" stroke-linejoin="round" stroke-linecap="round"/><path d="M21.0 -124.0 L18.5 -104.0 L-4.0 -96.0" fill="none" stroke="#121212" stroke-width="14" stroke-linecap="round" stroke-linejoin="round"/><path d="M21.0 -124.0 L18.5 -104.0 L-4.0 -96.0" fill="none" stroke="#8A5A3C" stroke-width="8" stroke-linecap="round" stroke-linejoin="round"/><path d="M14.0 -129.0 L28.0 -129.0 L33.0 -108.0 L21.0 -108.0 Z" fill="#F2B544" stroke="#121212" stroke-width="2.5" stroke-linejoin="round" stroke-linecap="round"/><circle cx="-4.0" cy="-96.0" r="5.5" fill="#8A5A3C" stroke="#121212" stroke-width="2.5" stroke-linejoin="round" stroke-linecap="round"/></g><path d="M270 212 l10 -4 M272 226 l12 0 M270 240 l10 4" fill="none" stroke="#121212" stroke-width="3" stroke-linecap="round" stroke-linejoin="round"/><path d="M50 44 H142 Q150 44 150 52 V92 Q150 100 142 100 H96 L88 116 L80 100 H50 Q42 100 42 92 V52 Q42 44 50 44 Z" fill="#FFFFFF" stroke="#121212" stroke-width="3" stroke-linejoin="round" stroke-linecap="round"/><g transform="translate(76.0 72.0) rotate(-30) scale(1.2)"><rect x="-10" y="-5" width="20" height="10" rx="5" fill="#C0C6FC" stroke="#121212" stroke-width="2.5" stroke-linejoin="round" stroke-linecap="round"/><path d="M0 -5 V5" fill="none" stroke="#121212" stroke-width="2.5"/></g><path d="M104 62 H128 M104 74 H122 M104 86 H126" fill="none" stroke="#121212" stroke-width="3" stroke-linecap="round" stroke-linejoin="round"/><path d="M338 44 H430 Q438 44 438 52 V92 Q438 100 430 100 H400 L392 116 L384 100 H338 Q330 100 330 92 V52 Q330 44 338 44 Z" fill="#FFFFFF" stroke="#121212" stroke-width="3" stroke-linejoin="round" stroke-linecap="round"/><g transform="translate(362.0 74.0)"><rect x="-10.0" y="-16.0" width="20.0" height="32.0" rx="5" fill="#FFEFD6" stroke="#121212" stroke-width="3" stroke-linejoin="round" stroke-linecap="round"/><rect x="-10" y="-16" width="20" height="9" rx="4" fill="#F2B544"/><rect x="-10.0" y="-16.0" width="20.0" height="32.0" rx="5" fill="none" stroke="#121212" stroke-width="3" stroke-linejoin="round" stroke-linecap="round"/></g><path d="M380 84 L388 68 L396 80 L404 62 L410 70" fill="none" stroke="#121212" stroke-width="3" stroke-linecap="round" stroke-linejoin="round"/><g transform="translate(240.0 70.0)"><circle cx="0.0" cy="0.0" r="18" fill="#FDE8E6" stroke="#121212" stroke-width="3" stroke-linejoin="round" stroke-linecap="round"/><path d="M-8 -4 H8 M-8 4 H8 M5 -10 L-5 10" fill="none" stroke="#9A1C15" stroke-width="3.5" stroke-linecap="round"/></g></svg>