<svg xmlns="http://www.w3.org/2000/svg" viewBox="0 0 320 240" width="320" height="240" role="img" aria-label="Un bouclier et un œil : chaque accès d'urgence est tracé et visible."><title>Un bouclier et un œil : chaque accès d'urgence est tracé et visible.</title><ellipse cx="160" cy="222" rx="120" ry="12" fill="#C0C6FC"/><g transform="translate(130.0 120.0)"><path d="M0 -64 L52 -44 V4 Q52 48 0 70 Q-52 48 -52 4 V-44 Z" fill="#DCF2EE" stroke="#121212" stroke-width="3" stroke-linejoin="round" stroke-linecap="round"/><path d="M-26 0 q26 -26 52 0 q-26 26 -52 0 Z" fill="#FFFFFF" stroke="#121212" stroke-width="3" stroke-linejoin="round" stroke-linecap="round"/><circle r="8" fill="#121212"/></g><g transform="translate(206.0 60.0) scale(1.4)"><path d="M14 36 V26 a10 10 0 0 1 20 0 V36 Z" fill="#9A1C15" stroke="#121212" stroke-width="3" stroke-linejoin="round"/><path d="M20 26 a4 4 0 0 1 4 -4" stroke="#FFFFFF" stroke-width="3" fill="none" stroke-linecap="round"/><rect x="9" y="36" width="30" height="7" rx="2" fill="#FFFFFF" stroke="#121212" stroke-width="3" stroke-linejoin="round" stroke-linecap="round"/><line x1="38.1" y1="20.9" x2="42.8" y2="19.2" fill="none" stroke="#121212" stroke-width="3" stroke-linecap="round" stroke-linejoin="round"/><line x1="32.6" y1="13.7" x2="35.5" y2="9.6" fill="none" stroke="#121212" stroke-width="3" stroke-linecap="round" stroke-linejoin="round"/><line x1="24.0" y1="11.0" x2="24.0" y2="6.0" fill="none" stroke="#121212" stroke-width="3" stroke-linecap="round" stroke-linejoin="round"/><line x1="15.4" y1="13.7" x2="12.5" y2="9.6" fill="none" stroke="#121212" stroke-width="3" stroke-linecap="round" stroke-linejoin="round"/><line x1="9.9" y1="20.9" x2="5.2" y2="19.2" fill="none" stroke="#121212" stroke-width="3" stroke-linecap="round" stroke-linejoin="round"/></g><path d="M196 150 H250 M196 168 H236" fill="none" stroke="#121212" stroke-width="3" stroke-linecap="round" stroke-linejoin="round"/></svg>