<svg xmlns="http://www.w3.org/2000/svg" viewBox="0 0 320 240" width="320" height="240" role="img" aria-label="Ordonnance payée : direction la pharmacie."><title>Ordonnance payée : direction la pharmacie.</title><ellipse cx="160" cy="222" rx="140" ry="12" fill="#C0C6FC"/><g transform="translate(80.0 120.0) rotate(-8) scale(2.2)"><path d="M-16 -30 L16 -30 L16 34 L-16 34 L-12 37 L-8 34 L-4 37 L0 34 L4 37 L8 34 L12 37 L16 34 Z" fill="#FFFFFF" stroke="#121212" stroke-width="3" stroke-linejoin="round" stroke-linecap="round"/><rect x="-11" y="-24" width="14" height="3" rx="1.5" fill="#121212"/><rect x="-11" y="-17" width="22" height="2.5" rx="1" fill="#C0C6FC"/><rect x="-11" y="-12" width="18" height="2.5" rx="1" fill="#C0C6FC"/><rect x="-11" y="-4" width="12" height="12" fill="#FFFFFF" stroke="#121212" stroke-width="2"/><rect x="-8" y="-1" width="3" height="3" fill="#121212"/><rect x="-3" y="3" width="3" height="3" fill="#121212"/><rect x="-8" y="4" width="2" height="2" fill="#121212"/><rect x="4" y="-3" width="7" height="2.5" rx="1" fill="#121212"/><rect x="4" y="2" width="7" height="2.5" rx="1" fill="#121212"/><rect x="-11" y="14" width="22" height="7" rx="2" fill="#F2B544"/><g transform="rotate(-14)"><circle cx="6" cy="20" r="10" fill="none" stroke="#00524B" stroke-width="2.5"/><path d="M1.5 20 l3 3 6 -6" fill="none" stroke="#00524B" stroke-width="2.5" stroke-linecap="round" stroke-linejoin="round"/></g></g><path d="M130 122 H178 M168 110 l12 12 -12 12" fill="none" stroke="#121212" stroke-width="4" stroke-linecap="round" stroke-linejoin="round"/><g transform="translate(200.0 212.0)"><rect x="0.0" y="-96.0" width="104.0" height="60.0" rx="6" fill="#FFFFFF" stroke="#121212" stroke-width="3" stroke-linejoin="round" stroke-linecap="round"/><rect x="10.0" y="-84.0" width="16.0" height="18.0" rx="3" fill="#3648C0" stroke="#121212" stroke-width="2.5" stroke-linejoin="round" stroke-linecap="round"/><rect x="34.0" y="-84.0" width="16.0" height="18.0" rx="3" fill="#C0C6FC" stroke="#121212" stroke-width="2.5" stroke-linejoin="round" stroke-linecap="round"/><rect x="58.0" y="-84.0" width="16.0" height="18.0" rx="3" fill="#F2B544" stroke="#121212" stroke-width="2.5" stroke-linejoin="round" stroke-linecap="round"/><rect x="82.0" y="-84.0" width="16.0" height="18.0" rx="3" fill="#4E72AE" stroke="#121212" stroke-width="2.5" stroke-linejoin="round" stroke-linecap="round"/><rect x="10.0" y="-58.0" width="16.0" height="18.0" rx="3" fill="#C0C6FC" stroke="#121212" stroke-width="2.5" stroke-linejoin="round" stroke-linecap="round"/><rect x="34.0" y="-58.0" width="16.0" height="18.0" rx="3" fill="#F2B544" stroke="#121212" stroke-width="2.5" stroke-linejoin="round" stroke-linecap="round"/><rect x="58.0" y="-58.0" width="16.0" height="18.0" rx="3" fill="#4E72AE" stroke="#121212" stroke-width="2.5" stroke-linejoin="round" stroke-linecap="round"/><rect x="82.0" y="-58.0" width="16.0" height="18.0" rx="3" fill="#3648C0" stroke="#121212" stroke-width="2.5" stroke-linejoin="round" stroke-linecap="round"/><rect x="-6.0" y="-38.0" width="116.0" height="38.0" rx="6" fill="#4E72AE" stroke="#121212" stroke-width="3" stroke-linejoin="round" stroke-linecap="round"/><rect x="-10.0" y="-44.0" width="124.0" height="10.0" rx="4" fill="#FFFFFF" stroke="#121212" stroke-width="3" stroke-linejoin="round" stroke-linecap="round"/><g transform="translate(52.0 -112.0)"><circle cx="0.0" cy="0.0" r="13" fill="#FFFFFF" stroke="#121212" stroke-width="3" stroke-linejoin="round" stroke-linecap="round"/><g transform="translate(0.0 0.0) rotate(-35) scale(0.8125)"><rect x="-10" y="-5" width="20" height="10" rx="5" fill="#C0C6FC" stroke="#121212" stroke-width="2.5" stroke-linejoin="round" stroke-linecap="round"/><path d="M0 -5 V5" fill="none" stroke="#121212" stroke-width="2.5"/></g></g></g></svg>