<svg xmlns="http://www.w3.org/2000/svg" viewBox="0 0 480 360" width="480" height="360" role="img" aria-label="Une citoyenne regarde sur son téléphone la liste de qui a ouvert son dossier."><title>Une citoyenne regarde sur son téléphone la liste de qui a ouvert son dossier.</title><defs><pattern id="wx2" width="18" height="18" patternUnits="userSpaceOnUse"><rect width="18" height="18" fill="#4E72AE"/><circle cx="4.5" cy="4.5" r="3.2" fill="#FFFFFF"/><circle cx="13.5" cy="13.5" r="3.2" fill="#FFFFFF"/><path d="M13.5 1.5 L16.5 4.5 L13.5 7.5 L10.5 4.5 Z M4.5 10.5 L7.5 13.5 L4.5 16.5 L1.5 13.5 Z" fill="#F2B544"/></pattern></defs><ellipse cx="240" cy="322" rx="200" ry="16" fill="#C0C6FC"/><g transform="translate(150.0 322.0) scale(1.15)"><path d="M-20 -74 L20 -74 L27 -8 Q0 -2 -27 -8 Z" fill="url(#wx2)" stroke="#121212" stroke-width="3" stroke-linejoin="round" stroke-linecap="round"/><rect x="-20.0" y="-10.0" width="16.0" height="10.0" rx="5" fill="#242A36" stroke="#121212" stroke-width="3" stroke-linejoin="round" stroke-linecap="round"/><rect x="4.0" y="-10.0" width="16.0" height="10.0" rx="5" fill="#242A36" stroke="#121212" stroke-width="3" stroke-linejoin="round" stroke-linecap="round"/><path d="M-22 -130 Q-24 -131 -24 -126 L-21 -72 L21 -72 L24 -126 Q24 -131 22 -130 Q0 -122 -22 -130 Z" fill="#C0C6FC" stroke="#121212" stroke-width="3" stroke-linejoin="round" stroke-linecap="round"/><rect x="-6.0" y="-140.0" width="12.0" height="12.0" rx="3" fill="#5E3A24" stroke="#121212" stroke-width="3" stroke-linejoin="round" stroke-linecap="round"/><circle cx="0.0" cy="-156.0" r="17" fill="#5E3A24" stroke="#121212" stroke-width="3" stroke-linejoin="round" stroke-linecap="round"/><circle cx="0.0" cy="-178.0" r="8" fill="#1E140E" stroke="#121212" stroke-width="2.5" stroke-linejoin="round" stroke-linecap="round"/><path d="M-17 -156 Q-17 -176 0 -176 Q17 -176 17 -156 Q12 -167 0 -167 Q-12 -167 -17 -156 Z" fill="#1E140E" stroke="#121212" stroke-width="2.5" stroke-linejoin="round" stroke-linecap="round"/><circle cx="-6" cy="-157" r="1.8" fill="#121212"/><circle cx="6" cy="-157" r="1.8" fill="#121212"/><path d="M-5 -149 Q0 -145 5 -149" fill="none" stroke="#121212" stroke-width="2" stroke-linecap="round"/><path d="M-21.0 -124.0 L-23.5 -115.0 L-6.0 -118.0" fill="none" stroke="#121212" stroke-width="14" stroke-linecap="round" stroke-linejoin="round"/><path d="M-21.0 -124.0 L-23.5 -115.0 L-6.0 -118.0" fill="none" stroke="#5E3A24" stroke-width="8" stroke-linecap="round" stroke-linejoin="round"/><path d="M-28.0 -129.0 L-14.0 -129.0 L-21.0 -108.0 L-33.0 -108.0 Z" fill="#C0C6FC" stroke="#121212" stroke-width="2.5" stroke-linejoin="round" stroke-linecap="round"/><circle cx="-6.0" cy="-118.0" r="5.5" fill="#5E3A24" stroke="#121212" stroke-width="2.5" stroke-linejoin="round" stroke-linecap="round"/><path d="M21.0 -124.0 L28.5 -114.0 L16.0 -116.0" fill="none" stroke="#121212" stroke-width="14" stroke-linecap="round" stroke-linejoin="round"/><path d="M21.0 -124.0 L28.5 -114.0 L16.0 -116.0" fill="none" stroke="#5E3A24" stroke-width="8" stroke-linecap="round" stroke-linejoin="round"/><path d="M14.0 -129.0 L28.0 -129.0 L33.0 -108.0 L21.0 -108.0 Z" fill="#C0C6FC" stroke="#121212" stroke-width="2.5" stroke-linejoin="round" stroke-linecap="round"/><circle cx="16.0" cy="-116.0" r="5.5" fill="#5E3A24" stroke="#121212" stroke-width="2.5" stroke-linejoin="round" stroke-linecap="round"/></g><g transform="translate(330.0 196.0)"><rect x="-70.0" y="-100.0" width="140.0" height="200.0" rx="18" fill="#242A36" stroke="#121212" stroke-width="3" stroke-linejoin="round" stroke-linecap="round"/><rect x="-60.0" y="-88.0" width="120.0" height="176.0" rx="10" fill="#EAF0FC" stroke="#121212" stroke-width="3" stroke-linejoin="round" stroke-linecap="round"/><rect x="-50" y="-78" width="70" height="8" rx="3" fill="#121212"/><circle cx="-38.0" cy="-46.0" r="10" fill="#C0C6FC" stroke="#121212" stroke-width="2.5" stroke-linejoin="round" stroke-linecap="round"/><rect x="-20" y="-52" width="56" height="6" rx="3" fill="#121212"/><rect x="-20" y="-42" width="36" height="5" rx="2.5" fill="#4E72AE"/><circle cx="-38.0" cy="-6.0" r="10" fill="#DCF2EE" stroke="#121212" stroke-width="2.5" stroke-linejoin="round" stroke-linecap="round"/><rect x="-20" y="-12" width="56" height="6" rx="3" fill="#121212"/><rect x="-20" y="-2" width="36" height="5" rx="2.5" fill="#4E72AE"/><circle cx="-38.0" cy="34.0" r="10" fill="#FFEFD6" stroke="#121212" stroke-width="2.5" stroke-linejoin="round" stroke-linecap="round"/><rect x="-20" y="28" width="56" height="6" rx="3" fill="#121212"/><rect x="-20" y="38" width="36" height="5" rx="2.5" fill="#4E72AE"/><g transform="translate(42.0 -76.0)"><path d="M-12 0 q12 -12 24 0 q-12 12 -24 0 Z" fill="#FFFFFF" stroke="#121212" stroke-width="2.5" stroke-linejoin="round" stroke-linecap="round"/><circle r="3.5" fill="#121212"/></g></g><g transform="translate(410.0 90.0)"><path d="M0 -18 L16 -12 V2 Q16 14 0 20 Q-16 14 -16 2 V-12 Z" fill="#DCF2EE" stroke="#121212" stroke-width="3" stroke-linejoin="round" stroke-linecap="round"/><path d="M-7 1 l5 5 9 -10" fill="none" stroke="#00524B" stroke-width="3" stroke-linecap="round" stroke-linejoin="round"/></g></svg>